<?xml version="1.0" encoding="utf-8"?>
<!-- Generator: Adobe Illustrator 25.3.1, SVG Export Plug-In . SVG Version: 6.00 Build 0)  -->
<svg version="1.1" id="Layer_1" xmlns="http://www.w3.org/2000/svg" xmlns:xlink="http://www.w3.org/1999/xlink" x="0px" y="0px"
	 viewBox="0 0 15 15" style="enable-background:new 0 0 15 15;" xml:space="preserve">
<style type="text/css">
	.st0{fill:#0990CD;}
</style>
<path class="st0" d="M7.7,14.8c-3.5,0-6.3-0.9-6.3-2.1c0-0.6,0-1.3,0-2.1c0-0.2,0.1-0.4,0.2-0.5c0.7,0.9,3.1,1.6,6.1,1.6
	s5.4-0.7,6.1-1.6c0.1,0.2,0.2,0.3,0.2,0.5c0,0.6,0,1.3,0,2.1C14,13.9,11.2,14.8,7.7,14.8L7.7,14.8z M7.7,10.6
	c-3.5,0-6.3-0.9-6.3-2.1c0-0.6,0-1.3,0-2.1c0-0.1,0-0.2,0.1-0.3l0,0c0-0.1,0.1-0.1,0.1-0.2c0.7,0.9,3.1,1.6,6.1,1.6s5.4-0.7,6.1-1.6
	c0.1,0.1,0.1,0.1,0.1,0.2l0,0C14,6.2,14,6.3,14,6.5c0,0.6,0,1.3,0,2.1C14,9.7,11.2,10.6,7.7,10.6L7.7,10.6z M7.7,6.5
	c-3.5,0-6.3-0.9-6.3-2.1c0-0.3,0-0.7,0-1c0-0.3,0-0.7,0-1c0-1.2,2.8-2.1,6.3-2.1S14,1.1,14,2.3c0,0.3,0,0.7,0,1c0,0.3,0,0.7,0,1
	C14,5.5,11.2,6.5,7.7,6.5z M7.7,1.2c-2.3,0-4.2,0.5-4.2,1s1.9,1,4.2,1c2.3,0,4.2-0.5,4.2-1S10,1.2,7.7,1.2z"/>
</svg>
